<svg width="17" height="20" viewBox="0 0 17 20" fill="none" xmlns="http://www.w3.org/2000/svg">
<path d="M16.9231 0V11.0189C16.9231 16 13.0995 20 8.49694 20C3.89443 20 0 16 0 11.0189L0 10.1132L7.85967 10.1132V10.9434C7.85967 10.9434 7.85967 10.9434 7.85967 11.0189C7.85967 11.3962 8.1429 11.6226 8.42614 11.6226C8.78017 11.6226 8.9926 11.3208 8.9926 11.0189V8.37736L0 8.37736L0 3.39623L13.7367 3.39623L13.7367 11.0189C13.7367 14.1132 11.4001 16.6792 8.42614 16.6792C7.71806 16.6792 7.00998 16.5283 6.3019 16.2264C6.23109 16.2264 6.23109 16.1509 6.16028 16.1509C6.08948 16.1509 6.08948 16.0755 6.01867 16.0755C5.87705 16 5.80624 15.9245 5.66463 15.9245C5.52301 15.8491 5.3814 15.6981 5.16897 15.6226C4.95655 15.4717 4.81493 15.3208 4.60251 15.0943C4.5317 15.0189 4.5317 15.0189 4.4609 14.9434C4.31928 14.7925 4.24847 14.6415 4.10686 14.4906L4.03605 14.4151C3.96524 14.3396 3.96524 14.3396 3.96524 14.2642C3.96524 14.1887 3.89443 14.1887 3.89443 14.1132C3.75282 13.9623 3.68201 13.7358 3.6112 13.5094C3.6112 13.5094 3.6112 13.434 3.54039 13.434H5.31059C5.31059 13.5094 5.3814 13.5094 5.3814 13.5094C5.73544 13.8113 6.01867 14.1132 6.37271 14.3396C7.00998 14.7925 7.71806 15.0189 8.49694 15.0189C10.5504 15.0189 12.2498 13.2075 12.2498 11.0189L12.2498 4.98113L1.62858 4.98113L1.62858 6.71698L10.5504 6.71698V11.0189C10.5504 12.2264 9.62987 13.283 8.42614 13.283C7.50563 13.283 6.72675 12.6792 6.44352 11.7736L1.48697 11.7736C1.841 15.5472 4.81493 18.4906 8.42614 18.4906C12.2498 18.4906 15.3653 15.1698 15.3653 11.0943L15.3653 1.58491L0 1.58491L0 0L16.9231 0Z" fill="black"/>
</svg>
